<svg width="48" height="44" viewBox="0 0 48 44" fill="none" xmlns="http://www.w3.org/2000/svg">
<rect width="48" height="44" rx="8" fill="#005266"/>
<path d="M34.5 33.875V31.125C34.5 29.6663 33.9205 28.2674 32.8891 27.2359C31.8576 26.2045 30.4587 25.625 29 25.625H18C16.5413 25.625 15.1424 26.2045 14.1109 27.2359C13.0795 28.2674 12.5 29.6663 12.5 31.125V33.875M29 14.625C29 17.6626 26.5376 20.125 23.5 20.125C20.4624 20.125 18 17.6626 18 14.625C18 11.5874 20.4624 9.125 23.5 9.125C26.5376 9.125 29 11.5874 29 14.625Z" stroke="white" stroke-width="2.75" stroke-linecap="round" stroke-linejoin="round"/>
</svg>
