<svg width="158" height="68" viewBox="0 0 158 68" fill="none" xmlns="http://www.w3.org/2000/svg">
<rect width="157.873" height="67.1414" rx="10.7707" fill="#005266"/>
<path d="M17.3668 22.1737H23.1926L29.3458 37.1857H29.6076L35.7608 22.1737H41.5866V44.5171H37.0045V29.9743H36.819L31.0368 44.408H27.9166L22.1344 29.9197H21.9489V44.5171H17.3668V22.1737ZM53.0284 44.8444C51.3046 44.8444 49.8209 44.4953 48.5771 43.797C47.3407 43.0915 46.3879 42.0951 45.7187 40.8077C45.0496 39.5131 44.715 37.9821 44.715 36.2147C44.715 34.4909 45.0496 32.9781 45.7187 31.6762C46.3879 30.3743 47.3298 29.3597 48.5444 28.6323C49.7663 27.905 51.1991 27.5414 52.8429 27.5414C53.9484 27.5414 54.9776 27.7195 55.9304 28.0759C56.8904 28.4251 57.7269 28.9524 58.4396 29.6579C59.1597 30.3634 59.7197 31.2507 60.1198 32.3199C60.5198 33.3818 60.7198 34.6255 60.7198 36.051V37.3275H46.5697V34.4473H56.345C56.345 33.7782 56.1995 33.1854 55.9086 32.669C55.6176 32.1526 55.214 31.7489 54.6976 31.458C54.1884 31.1598 53.5957 31.0107 52.9193 31.0107C52.2138 31.0107 51.5883 31.1743 51.0428 31.5016C50.5045 31.8217 50.0827 32.2544 49.7772 32.7999C49.4717 33.3381 49.3154 33.9382 49.3081 34.6V37.3384C49.3081 38.1676 49.4608 38.884 49.7663 39.4876C50.0791 40.0913 50.5191 40.5568 51.0864 40.8841C51.6537 41.2114 52.3265 41.3751 53.1047 41.3751C53.6211 41.3751 54.0939 41.3023 54.523 41.1569C54.9521 41.0114 55.3194 40.7932 55.6249 40.5023C55.9304 40.2113 56.1631 39.8549 56.3231 39.4331L60.6216 39.7168C60.4034 40.7496 59.9561 41.6514 59.2797 42.4224C58.6106 43.1861 57.745 43.7825 56.6832 44.2116C55.6285 44.6335 54.4103 44.8444 53.0284 44.8444ZM69.9277 44.7898C68.6549 44.7898 67.5021 44.4625 66.4693 43.8079C65.4438 43.1461 64.6292 42.1751 64.0255 40.895C63.4291 39.6077 63.1309 38.0294 63.1309 36.1601C63.1309 34.24 63.44 32.6435 64.0582 31.3707C64.6764 30.0906 65.4983 29.1342 66.5238 28.5014C67.5566 27.8614 68.6876 27.5414 69.9168 27.5414C70.8551 27.5414 71.6369 27.7014 72.2624 28.0214C72.8952 28.3341 73.4043 28.7269 73.7898 29.1997C74.1826 29.6651 74.4808 30.1234 74.6844 30.5743H74.8262V22.1737H79.4629V44.5171H74.8808V41.8333H74.6844C74.4662 42.2988 74.1571 42.7606 73.7571 43.2188C73.3643 43.6698 72.8516 44.0443 72.2188 44.3425C71.5933 44.6407 70.8296 44.7898 69.9277 44.7898ZM71.4005 41.0914C72.1497 41.0914 72.7825 40.8877 73.2989 40.4804C73.8225 40.0659 74.2226 39.4876 74.4989 38.7458C74.7826 38.0039 74.9244 37.1348 74.9244 36.1383C74.9244 35.1419 74.7862 34.2764 74.5099 33.5418C74.2335 32.8072 73.8334 32.2399 73.3098 31.8398C72.7861 31.4398 72.1497 31.2398 71.4005 31.2398C70.6369 31.2398 69.9932 31.4471 69.4695 31.8617C68.9458 32.2762 68.5494 32.8508 68.2803 33.5854C68.0112 34.32 67.8767 35.171 67.8767 36.1383C67.8767 37.1129 68.0112 37.9748 68.2803 38.724C68.5567 39.4658 68.9531 40.0477 69.4695 40.4695C69.9932 40.8841 70.6369 41.0914 71.4005 41.0914ZM83.2841 44.5171V27.7595H87.9317V44.5171H83.2841ZM85.6188 25.5994C84.9279 25.5994 84.3351 25.3703 83.8405 24.9121C83.3532 24.4466 83.1096 23.8902 83.1096 23.2429C83.1096 22.6028 83.3532 22.0537 83.8405 21.5955C84.3351 21.13 84.9279 20.8972 85.6188 20.8972C86.3098 20.8972 86.8989 21.13 87.3862 21.5955C87.8808 22.0537 88.1281 22.6028 88.1281 23.2429C88.1281 23.8902 87.8808 24.4466 87.3862 24.9121C86.8989 25.3703 86.3098 25.5994 85.6188 25.5994ZM105.597 32.5381L101.343 32.7999C101.27 32.4362 101.114 32.1089 100.874 31.818C100.634 31.5198 100.317 31.2834 99.9244 31.1089C99.5389 30.927 99.077 30.8361 98.5388 30.8361C97.8188 30.8361 97.2115 30.9889 96.7169 31.2943C96.2223 31.5925 95.975 31.9926 95.975 32.4944C95.975 32.8945 96.135 33.2327 96.455 33.509C96.7751 33.7854 97.3242 34.0073 98.1024 34.1745L101.135 34.7855C102.765 35.1201 103.979 35.6583 104.779 36.4002C105.579 37.142 105.979 38.1166 105.979 39.324C105.979 40.4223 105.656 41.386 105.008 42.2151C104.368 43.0443 103.488 43.6916 102.368 44.1571C101.255 44.6153 99.9716 44.8444 98.517 44.8444C96.2987 44.8444 94.5313 44.3825 93.2148 43.4588C91.9056 42.5279 91.1383 41.2623 90.9128 39.6622L95.4841 39.4222C95.6223 40.0986 95.9568 40.615 96.4878 40.9714C97.0187 41.3205 97.6988 41.4951 98.5279 41.4951C99.3425 41.4951 99.9971 41.3387 100.492 41.0259C100.994 40.7059 101.248 40.295 101.255 39.7931C101.248 39.3713 101.07 39.0258 100.721 38.7567C100.372 38.4803 99.8335 38.2694 99.1061 38.1239L96.2041 37.5457C94.5676 37.2184 93.3494 36.6511 92.5493 35.8438C91.7565 35.0364 91.3601 34.0073 91.3601 32.7563C91.3601 31.6798 91.6511 30.7525 92.2329 29.9743C92.8221 29.196 93.6476 28.596 94.7095 28.1741C95.7786 27.7523 97.0296 27.5414 98.4625 27.5414C100.579 27.5414 102.245 27.9887 103.459 28.8833C104.681 29.7779 105.394 30.9961 105.597 32.5381ZM111.775 50.8012C111.186 50.8012 110.633 50.7539 110.117 50.6593C109.608 50.5721 109.186 50.4593 108.851 50.3211L109.899 46.8518C110.444 47.0191 110.935 47.11 111.372 47.1245C111.815 47.1391 112.197 47.0373 112.517 46.8191C112.844 46.6009 113.11 46.2299 113.313 45.7063L113.586 44.9971L107.575 27.7595H112.463L115.932 40.0659H116.106L119.608 27.7595H124.529L118.016 46.3281C117.703 47.23 117.277 48.0155 116.739 48.6847C116.208 49.3611 115.535 49.8811 114.721 50.2448C113.906 50.6157 112.924 50.8012 111.775 50.8012ZM140.85 32.5381L136.595 32.7999C136.522 32.4362 136.366 32.1089 136.126 31.818C135.886 31.5198 135.57 31.2834 135.177 31.1089C134.791 30.927 134.33 30.8361 133.791 30.8361C133.071 30.8361 132.464 30.9889 131.969 31.2943C131.475 31.5925 131.227 31.9926 131.227 32.4944C131.227 32.8945 131.387 33.2327 131.708 33.509C132.028 33.7854 132.577 34.0073 133.355 34.1745L136.388 34.7855C138.017 35.1201 139.232 35.6583 140.032 36.4002C140.832 37.142 141.232 38.1166 141.232 39.324C141.232 40.4223 140.908 41.386 140.261 42.2151C139.621 43.0443 138.741 43.6916 137.621 44.1571C136.508 44.6153 135.224 44.8444 133.769 44.8444C131.551 44.8444 129.784 44.3825 128.467 43.4588C127.158 42.5279 126.391 41.2623 126.165 39.6622L130.737 39.4222C130.875 40.0986 131.209 40.615 131.74 40.9714C132.271 41.3205 132.951 41.4951 133.78 41.4951C134.595 41.4951 135.25 41.3387 135.744 41.0259C136.246 40.7059 136.501 40.295 136.508 39.7931C136.501 39.3713 136.322 39.0258 135.973 38.7567C135.624 38.4803 135.086 38.2694 134.359 38.1239L131.457 37.5457C129.82 37.2184 128.602 36.6511 127.802 35.8438C127.009 35.0364 126.613 34.0073 126.613 32.7563C126.613 31.6798 126.904 30.7525 127.485 29.9743C128.075 29.196 128.9 28.596 129.962 28.1741C131.031 27.7523 132.282 27.5414 133.715 27.5414C135.831 27.5414 137.497 27.9887 138.712 28.8833C139.934 29.7779 140.646 30.9961 140.85 32.5381Z" fill="white"/>
</svg>
